<svg width="890" height="196" viewBox="0 0 890 196" fill="none" xmlns="http://www.w3.org/2000/svg">
<path d="M562.622 26.689H571.866L585.378 28.8223L596.044 33.089L604.578 38.0667L612.4 44.4667L621.644 53.7112L632.311 67.9334L655.066 102.067L662.889 112.022L668.578 118.422L677.111 124.822L686.355 128.378L688.489 129.089H703.422L713.378 125.533L721.2 120.556L726.178 115.578L731.155 107.045L734 97.8001V84.289L731.155 74.3334L726.889 67.2223L720.489 60.8223L710.533 55.8445L702.711 53.7112H689.2L677.822 57.9779L667.866 63.6667L656.489 72.9112L654.355 73.6223L645.822 60.8223L640.844 53.0001L642.266 50.1556L654.355 40.9112L667.155 33.8001L679.955 28.8223L692.044 26.689H699.866L714.089 28.8223L726.889 33.8001L736.844 40.2001L746.089 48.7334L753.2 58.689L757.466 68.6445L760.311 81.4445L761.022 92.1112L759.6 103.489L758.178 110.6L753.911 121.267L746.8 131.933L742.533 136.911L736.844 141.889L729.022 146.867L717.644 152.556L709.111 154.689L701.289 156.111H692.044L678.533 153.978L667.866 149.711L660.755 145.445L652.222 139.045L642.978 129.8L635.866 120.556L628.755 110.6L608.844 80.7334L600.311 69.3556L595.333 64.3779L586.8 57.9779L577.555 54.4223L575.422 53.7112H560.489L550.533 57.2667L542.711 62.2445L537.733 67.2223L533.466 74.3334L530.622 82.1556L529.911 85.0001V98.5112L532.755 108.467L537.022 115.578L543.422 121.978L553.378 126.956L560.489 129.089H574.711L586.089 124.822L596.044 119.133L607.422 109.889H610.266L617.378 121.267L623.066 129.089L622.355 131.933L616.666 136.911L607.422 143.311L596.044 149.711L584.666 153.978L573.289 156.111H564.044L549.822 153.978L537.022 149L527.066 142.6L517.822 134.067L512.133 126.245L507.155 116.289L505.022 109.889L503.6 101.356L502.889 90.689L504.311 79.3112L505.733 72.2001L510 61.5334L517.111 50.8667L521.378 45.889L529.2 39.489L538.444 33.8001L550.533 28.8223L562.622 26.689Z" fill="#473AF0"/>
<path d="M837.111 40.2H850.622L858.445 42.3333L868.4 47.3111L876.933 55.1333L881.2 60.8222L886.178 70.7777L889.022 81.4444L889.733 85.7111V109.178L887.6 119.844L883.333 131.222L876.933 140.467L870.533 146.867L861.289 152.556L852.045 155.4L847.067 156.111H839.956L830 153.978L822.889 150.422L815.778 144.733L812.222 141.178L811.511 195.222L810.8 195.933H782.356L781.645 195.222V42.3333H809.378L810.089 56.5555L815.778 50.1555L822.889 45.1777L830.711 41.6222L837.111 40.2ZM830 63.6666L823.6 66.5111L817.911 71.4888L813.645 77.8888L811.511 85.7111L810.8 90.6888V102.067L812.933 114.156L817.2 122.689L822.889 128.378L830 131.933H842.089L849.2 128.378L854.178 123.4L857.733 115.578L859.156 109.889L859.867 103.489V92.1111L857.733 80.0222L853.467 72.2L848.489 67.2222L843.511 64.3777L840.667 63.6666H830Z" fill="#473AF0"/>
<path d="M281.733 40.2H297.378L307.333 42.3333L315.867 45.8888L323.689 51.5777L330.089 57.9777L335.067 65.8L338.622 75.0444L341.467 88.5555L342.178 97.0888V106.333H268.933L270.355 116.289L274.622 124.822L279.6 129.8L286 132.644H298.089L303.778 129.8L307.333 125.533L310.889 117.711L337.2 121.978L340.044 122.689L339.333 126.244L334.355 136.2L326.533 144.733L319.422 149.711L313.733 152.556L303.067 155.4L297.378 156.111H286.711L276.755 154.689L266.089 151.133L257.555 146.156L249.733 138.333L244.755 130.511L240.489 119.133L238.355 107.044V89.9777L240.489 77.8888L244.755 66.5111L249.733 58.6888L254.711 53L263.244 46.6L270.355 43.0444L281.733 40.2ZM286 62.9555L280.311 65.0888L273.911 70.7777L270.355 77.8888L268.933 85.7111V88.5555H312.311V81.4444L309.467 73.6222L306.622 69.3555L301.644 65.0888L295.955 62.9555H286Z" fill="#473AF0"/>
<path d="M44.222 40.2H60.5776L71.9554 43.0444L81.9109 48.0222L89.7331 54.4222L96.1331 62.9555L101.111 74.3333L103.955 87.1333L104.666 93.5333V106.333H31.422L33.5554 117.711L37.1109 124.822L43.5109 130.511L49.1998 132.644H60.5776L66.2665 129.8L70.5331 124.822L74.0887 117.711L102.533 122.689L101.822 126.956L98.2665 134.067L93.2887 140.467L86.8887 146.867L78.3554 151.844L69.1109 154.689L59.8665 156.111H49.1998L36.3998 153.978L25.7331 149.711L17.9109 144.022L11.5109 136.911L5.82202 126.956L2.26646 114.867L0.844238 104.2V92.8222L2.26646 82.1555L5.82202 70.0666L10.7998 60.8222L18.622 52.2888L25.7331 46.6L34.9776 42.3333L44.222 40.2ZM48.4887 62.9555L42.0887 65.8L37.1109 70.0666L32.8442 78.6L32.1331 81.4444V88.5555H75.5109L74.7998 80.0222L71.2442 71.4888L66.2665 66.5111L59.1553 62.9555H48.4887Z" fill="#473AF0"/>
<path d="M114.622 42.3333H145.2L148.755 50.8666L162.267 87.8444L168.667 105.622L171.511 114.867L172.222 115.578L181.467 88.5555L198.533 43.0444L199.244 42.3333H229.111L228.4 45.8888L214.889 80.0221L197.111 124.822L185.733 153.267H158.711L150.178 132.644L124.578 68.6444L116.044 48.0221L114.622 44.4666V42.3333Z" fill="#473AF0"/>
<path d="M448.844 0.377686H478V153.267H448.133V1.0888L448.844 0.377686Z" fill="#473AF0"/>
<path d="M411.867 40.2H422.533L431.778 43.0444L436.044 45.1777L434.622 51.5777L427.511 71.4888L418.978 67.9333L416.133 67.2222H410.444L404.756 69.3555L400.489 72.9111L396.933 81.4444L395.511 88.5555L394.8 97.0888L394.089 153.267H364.222V42.3333H391.956L392.667 55.8444L399.778 46.6L405.467 42.3333L411.867 40.2Z" fill="#473AF0"/>
</svg>
