<svg width="311" height="156" viewBox="0 0 311 156" fill="none" xmlns="http://www.w3.org/2000/svg">
<path d="M72.5111 0.48877H83.1777L94.5555 1.91099L106.644 5.46655L120.156 12.5777L129.4 19.6888L137.933 27.511L142.911 33.1999L149.311 41.0221L155.711 50.2665L163.533 61.6443L179.178 85.111L187.711 97.1999L196.244 107.155L203.356 113.555L211.889 119.244L222.556 122.8L226.822 123.511H237.489L248.867 120.667L257.4 116.4L264.511 110.711L270.2 104.311L275.178 94.3554L277.311 86.5332L278.022 75.1554L276.6 65.1999L273.756 56.6665L269.489 49.5554L264.511 43.8665L257.4 38.8888L249.578 35.3332L241.044 33.1999L235.356 32.4888H226.822L216.156 35.3332L204.778 41.0221L194.111 48.1332L186.289 54.5332L184.156 56.6665L181.311 55.2443L165.667 31.7777V30.3554L175.622 22.5332L184.867 16.1332L196.244 9.73321L206.2 5.46655L214.733 2.6221L227.533 0.48877H236.778L251 2.6221L262.378 6.17766L273.756 11.8665L283 18.2665L291.533 26.0888L298.644 36.0443L304.333 46.711L307.889 58.7999L309.311 67.3332L310.022 79.4221L308.6 92.2221L305.756 102.889L300.067 116.4L292.956 126.355L285.133 134.889L278.022 140.578L271.622 144.844L259.533 150.533L247.444 154.089L238.2 155.511H227.533L216.156 154.089L204.778 150.533L193.4 144.844L187 140.578L179.889 134.889L168.511 123.511L162.111 115.689L153.578 103.6L147.178 94.3554L142.2 86.5332L127.267 64.4888L120.156 55.2443L113.756 48.1332L106.644 41.7332L98.8222 36.7554L88.1555 33.1999L83.8888 32.4888H73.2222L61.8444 35.3332L53.3111 39.5999L46.2 45.2888L41.2222 50.9777L36.9555 58.0888L33.4 69.4666L32.6888 80.1332L34.1111 90.7999L36.9555 99.3332L41.2222 106.444L46.9111 112.844L56.1555 118.533L66.1111 122.089L75.3555 123.511H83.8888L94.5555 120.667L106.644 114.978L114.467 109.289L123.711 102.178L126.556 99.3332L129.4 100.755L145.044 124.222V125.644L137.222 132.044L125.133 140.578L112.333 147.689L99.5333 152.667L90.2888 154.8L84.6 155.511H73.9333L62.5555 154.089L49.7555 150.533L38.3777 144.844L28.4222 138.444L19.1777 129.911L12.7777 121.378L6.37773 109.289L2.11107 94.3554L0.688843 77.9999L2.11107 63.7777L4.95551 53.111L8.51107 43.8665L13.4888 35.3332L21.3111 25.3777L26.2888 20.3999L36.9555 12.5777L49.0444 6.17766L63.2666 1.91099L72.5111 0.48877Z" fill="#0366AF"/>
</svg>